<?xml version="1.0" encoding="utf-8"?>
<!-- Generator: Adobe Illustrator 16.0.0, SVG Export Plug-In . SVG Version: 6.00 Build 0)  -->
<!DOCTYPE svg PUBLIC "-//W3C//DTD SVG 1.1//EN" "http://www.w3.org/Graphics/SVG/1.1/DTD/svg11.dtd">
<svg version="1.1" id="Layer_1" xmlns="http://www.w3.org/2000/svg" xmlns:xlink="http://www.w3.org/1999/xlink" x="0px" y="0px"
	 width="2000px" height="2000px" viewBox="0 0 2000 2000" enable-background="new 0 0 2000 2000" xml:space="preserve">
<g>
	<path fill="#F03B38" d="M629.75,1899.381c-558.296-91-714.198-668.998-370.399-1016.599
		c313.102-316.6,150.603-563.499,664.602-595.901c454.998-28.699,914.2,522,1001.199,989.602
		C2044.149,1914.879,1330.051,2013.58,629.75,1899.381z"/>
	<path fill="#1A1A1A" d="M1135.852,74.881c-70.799-11.199-164.901-17.3-265.001-17.3c-100.099,0-194.199,6.2-264.998,17.3
		c-50.9,8-111.5,22.101-111.5,43.899c0,21.801,60.6,35.901,111.5,43.902c70.799,11.199,164.899,17.297,264.998,17.297
		c100.001,0,194.1-6.098,265.001-17.297c50.898-8.001,111.5-22.101,111.5-43.902C1247.352,96.982,1186.75,82.882,1135.852,74.881z"
		/>
	<path fill="#1A1A1A" d="M1869.053,593.381c-19.502-10.6-47.302-4.1-82.503,19.299c-33.298,22.201-72.099,58.601-115.398,108.2
		c-88.798,101.802-186.7,248.001-275.703,411.801c-88.894,163.803-158.296,325.498-195.396,455.398
		c-17.999,63.303-27.399,115.6-27.9,155.6c-0.499,42.303,9.201,69.102,28.699,79.701c6.003,3.301,12.898,4.902,20.503,4.902
		c16.898,0,37.698-8.104,61.997-24.201c33.301-22.201,72.101-58.602,115.398-108.201c88.8-101.799,186.703-248,275.701-411.797
		c88.902-163.801,158.301-325.502,195.401-455.403c17.998-63.3,27.397-115.599,27.896-155.599
		C1898.251,630.782,1888.555,603.982,1869.053,593.381z"/>
	<path fill="#F5E510" d="M1254.75,1215.281c52.002,54.701,90.104,115.299,98.702,176c8.6,60.703-8.001,163.398-14.7,208.701
		c-6.299,42.9-36.201,171.5-39.299,184.896c28.196-21.998,60-53.199,94.796-92.996c88.5-101.502,186.201-247.303,274.902-410.703
		c77.401-142.398,139.899-283.099,179.1-402.699c-13.1-2.697-120.1-25.302-230.899-65.9
		c-103.799-38.098-207.901-93.698-281.297-142.298c-157.004-104-270.004-278.001-316.002-371
		c-43.701-88.4-63.902-222.7-65.802-235.799c-26.5-0.9-54.398-1.401-83.501-1.401c-83.999,0-157.598,4.2-216.698,10.9
		c0,1.201,0.4,25.101,10.101,144.299c10,122.702,45.298,206.002,65.299,286.701c20,80.698,94.699,210.002,138,285.999
		c43.301,76.001,177.297,226.001,177.297,226.001S1202.749,1160.578,1254.75,1215.281z"/>
	<path fill="#FA1C4A" d="M1022.148,66.38l-67.897-4c0,0,11.901,106.3,48.4,197.802c36.501,91.5,118.498,218,194.499,295.999
		c76.001,78,213.501,166.001,290,203c76.5,37,224.501,102.402,361.201,119.202l21.2-68.302c0,0-85-20.198-119.803-33.198
		l-24.397,29.998l0.599-38.199c0,0-146.2-56.199-162.196-67.096l-32.401,38.897l8.598-50.502c0,0-158.998-80.197-222.299-132.998
		l-43.8,29.2l24.6-44.601c0,0-95.702-85.4-120.098-124.9l-59,16.801l39.297-43.7c0,0-63.8-92.7-93.799-175.201
		C1034.851,132.083,1022.148,66.38,1022.148,66.38z"/>
	<path fill="#FFFFFF" d="M1725.054,806.879l0.597-38.199c0,0-146.197-56.199-162.199-67.096l-32.4,38.897l8.598-50.502
		c0,0-158.996-80.197-222.297-132.998l-32.299,19.2c31.001,27.8,64.697,55.899,101.999,81.999
		c142.098,99.5,309.301,155.2,473.902,179.601l8.598-27.702c0,0-85.103-20.198-120-33.198L1725.054,806.879z"/>
	<path fill="#FFFFFF" d="M1064.552,214.682c-29.999-82.5-42.403-148.302-42.403-148.302l7.902,40.301
		c-3.999,48.5,37,195.502,114,298.5l14.3-15.299C1158.351,389.882,1094.555,297.182,1064.552,214.682z"/>
	<path fill="#FFFFFF" d="M1280.052,569.181l18.098-27.6c0,0-95.7-85.4-120.096-124.9l-29.001,7.5
		C1186.551,475.282,1225.25,519.682,1280.052,569.181z"/>
	<path fill="#FFFFFF" d="M1226.749,583.181l-17.297,26.401c-14.601,22.199-9.101,51.9,12.298,67.5l78.6,57.201
		c23.804,17.302,57.303,10.299,72.201-15l10.199-17.401c0,0-42.001-26-91.3-64.7
		C1242.153,598.483,1226.749,583.181,1226.749,583.181z"/>
	<path fill="#FFFFFF" d="M1454.651,1617.68c-0.201,0-0.4-0.1-0.597-0.1c-11.202,0.201-21.303-5-27.704-14.199
		c-6.399-9.199-7.8-20.4-3.801-30.9l2.005-5.297c5.795-15.203,1.498-32.604-10.703-43.402l-6.502-5.701
		c-12.496-10.998-30.699-12.9-45.298-4.699l-13.199,8.002c-1.399,0.799-1.903,2.697-1.002,4.098c0.801,1.4,2.7,1.898,4.101,1.002
		l13.1-8.002c12.3-6.9,27.7-5.301,38.3,4l6.502,5.701c10.396,9.102,13.997,23.898,9.099,36.801l-2.002,5.299
		c-4.599,12.201-2.896,25.801,4.503,36.502c6.699,9.697,17.297,15.598,28.8,16.598L1454.651,1617.68z"/>
	<path fill="#FFFFFF" d="M806.751,683.181l44.603-47.198c11.298-12,31.097-9.701,39.297,4.6l71.999,125
		c5.903,10.2,3.704,23.2-5.197,30.901c-11.102,9.598-28,7.5-36.4-4.5l-29.999-42.9c-9.101-13-27.802-14.2-38.402-2.5l-6.6,7.201
		L806.751,683.181z"/>
	<path fill="#FFFFFF" d="M792.052,653.082c-0.201,0-0.398,0-0.6,0c-3.001-0.2-5.701-2.1-6.9-4.901l-33.201-75.5
		c-1.199-2.799-0.799-6.1,1.101-8.5l86.601-106.6c7.301-9,18.502-13.8,29.999-12.799c11.501,0.899,21.801,7.399,27.601,17.399
		c6.601,11.4,6.2,25.3-0.899,36.4l-96.699,150.702C797.552,651.681,794.853,653.082,792.052,653.082z M866.151,450.682
		c-8.799,0-16.802,3.8-22.398,10.7l-86.601,106.601c-0.499,0.7-0.7,1.5-0.302,2.3l33.199,75.499c0.501,1.1,1.503,1.3,1.901,1.3
		c0.402,0,1.4,0,2.103-0.999l96.697-150.702c5.9-9.198,6.2-20.701,0.7-30.2c-4.798-8.4-13.201-13.698-22.801-14.5
		C867.749,450.682,866.95,450.682,866.151,450.682z"/>
	<path fill="#FFFFFF" d="M1470.449,960.382l-72.697,155.1c-9.099,19.5-34.398,24.6-50.399,10.199l-38.002-34.199
		c-14.299-12.9-18.798-33.5-11-51.102l7.902-18.201c6.998-16.1,27.299-21.398,41.298-10.799l3.6,2.701
		c12.4,9.4,30.202,5.398,37.503-8.299l40.296-76.001c7.301-13.801,26.103-15.999,36.503-4.301
		C1473.95,934.983,1475.851,948.781,1470.449,960.382z"/>
	<path fill="#FFFFFF" d="M1461.65,1223.283c-8.301,0-16.098-3.803-21.298-10.502l-17.803-22.998c-6.099-8-7.398-18.605-3.198-27.701
		l52.498-114.9l2.704,1.199l-2.704-1.199c3.299-7.1,9.403-12.5,17.003-14.699c7.496-2.201,15.6-1.002,22.197,3.197l68.902,44.502
		c11.201,7.199,15.397,21.299,10.099,33.4l-27.602,63.4c-3.198,7.4-9.499,12.9-17.301,15.199c-7.797,2.301-15.999,0.9-22.698-3.699
		c-5.001-3.4-11.199-4.5-17.1-3c-5.9,1.498-10.799,5.5-13.5,10.898l-5.898,11.9c-4.201,8.398-12.204,13.898-21.502,14.801
		C1463.45,1223.283,1462.552,1223.283,1461.65,1223.283z M1496.349,1037.484c-1.998,0-3.995,0.297-5.898,0.799
		c-5.898,1.701-10.698,5.9-13.199,11.396l-52.5,114.9c-3.2,7.102-2.302,15.402,2.501,21.602l17.802,23
		c4.397,5.697,11.398,8.801,18.599,8.1c7.199-0.699,13.5-5,16.699-11.498l5.9-11.902c3.498-6.998,9.799-12.098,17.399-14.1
		c7.6-1.998,15.599-0.5,22,3.9c5.198,3.602,11.6,4.602,17.701,2.9c5.999-1.701,10.897-6.002,13.501-11.799l27.597-63.402
		c4.102-9.5,0.803-20.396-7.798-26l-68.901-44.5C1504.352,1038.582,1500.352,1037.484,1496.349,1037.484z"/>
	<path fill="#1A1A1A" d="M1638.053,1343.182l-77.2-87.502c-16.203-18.396-45.602-15.598-58.199,5.4
		c-6.2,10.5-6.804,23.301-1.501,34.303l16.898,34.896c5.001,10.205,4.8,22.199-0.398,32.402l-65.902,127.699
		c-6.398,12.4-5.1,27.303,3.302,38.4l34.199,45.201c0,0,52.001-76.701,84.702-124.701
		C1606.752,1401.182,1638.053,1343.182,1638.053,1343.182z"/>
	<path fill="#1A1A1A" d="M1333.95,1217.082l-2.398,4.898c-5.401,11-4.1,24,3.397,33.699l37.899,49.402
		c11.402,14.898,15.902,34.002,12.4,52.398l-7.098,36.801c-2.1,10.9,1.598,22.102,9.701,29.598
		c16.898,15.701,44.398,9.102,52.2-12.596l25.098-69.502c6.399-17.701,2.801-37.5-9.499-51.801l-68.398-79.799
		C1372.152,1192.783,1344.053,1196.381,1333.95,1217.082z"/>
	<path fill="#1A1A1A" d="M1229.053,862.983l92.3,74.1c21.996,17.701,54.699,9.799,66.399-15.9l42.499-93.7
		c6.8-14.901,1.199-32.603-12.999-40.898l-8.401-4.903c-15.399-9.1-35.298-3.7-44.102,11.803
		c-9.298,16.297-30.598,21.199-46.096,10.6l-31.802-21.801c-14.699-10.101-34.899-6.298-44.797,8.598l-19.603,29.202
		C1213.149,833.982,1216.051,852.582,1229.053,862.983z"/>
	<path fill="#1A1A1A" d="M1110.054,848.882l-1.803,2.6c-8.8,12.302-6.8,29.298,4.603,39.301l123.299,108.098
		c13.196,11.5,33.398,9.202,43.497-5.097c8.603-12.201,6.8-28.801-4.198-38.901l-121.503-110.699
		C1140.953,832.38,1120.352,834.581,1110.054,848.882z"/>
	<path fill="#FFFFFF" d="M1162.651,805.283c-7.902,0-15.301-2.803-21.3-8.1l-60.898-54.201c-12.602-11.201-14.304-30.398-3.901-43.7
		l3.798-4.898c8.001-10.203,7.306-24.502-1.498-33.901l-41.301-43.9c-9.8-10.402-11.499-26.201-4.201-38.401
		c7.703-12.9,14.602-24.2,20.303-33.5c4.9-7.898,12.899-13.299,22.101-14.799c9.198-1.501,18.5,1.099,25.698,7l46.201,38.5
		c12.799,10.6,15.299,29,5.999,42.699c-7.198,10.501-5.699,24.5,3.399,33.401l61.599,59.898
		c12.101,11.799,13.002,31.103,1.904,43.902l-33.504,38.896c-5.697,6.603-13.499,10.501-22.197,11.104
		C1164.052,805.283,1163.352,805.283,1162.651,805.283z M1058.75,547.782c-5.701,9.2-12.496,20.5-20.197,33.399
		c-5.903,9.901-4.602,22.801,3.399,31.201l41.299,43.899c10.899,11.6,11.698,29.199,1.901,41.701l-3.803,4.899
		c-8.497,10.801-7.102,26.398,3.203,35.498l60.898,54.202c5.301,4.699,12,6.999,18.999,6.5c7.003-0.499,13.402-3.7,18.001-9.001
		l33.501-38.901c8.998-10.397,8.299-26.098-1.602-35.699l-61.601-59.899c-11.199-10.9-12.899-28.2-4.098-41.099
		c7.6-11.201,5.498-26.1-4.903-34.701l-46.196-38.5c-5.8-4.8-13.4-6.9-20.902-5.7
		C1069.352,536.983,1062.751,541.382,1058.75,547.782z"/>
	<path fill="#1A1A1A" d="M965.949,616.282l-22.998,33.601c-5.802,8.6-6.2,19.699-1.002,28.699l82.602,141
		c8.202,14.002,26.8,17.5,39.502,7.601c10.301-8.001,13.298-22.398,7.098-33.899l-44.001-81.403
		c-4.498-8.297-4.297-18.296,0.504-26.399l6.298-10.599c5.599-9.399,4.903-21.3-1.8-30.001l-22.998-29.799
		C998.153,600.681,976.254,601.282,965.949,616.282z"/>
	<path fill="#FFFFFF" d="M892.554,543.482l20.398-28.301c7.601-10.5,23.4-10.099,30.397,0.801l10.602,16.5
		c4.1,6.4,3.803,14.8-0.801,20.901l-21.998,29.399c-8.202,10.9-24.903,9.499-31.104-2.701l-8.897-17.599
		C888.054,556.381,888.552,549.081,892.554,543.482z"/>
	<path fill="#1A1A1A" d="M859.654,363.481l15.196,29.7c5.401,10.701,19.901,12.601,27.902,3.7c8.197-9,22.998-6.799,28.198,4.301
		l40.498,87.2c4.701,10.199,17.802,13.099,26.402,6l26.102-21.601c6.299-5.199,8.001-14.2,4.098-21.298L937.95,285.083
		c-5.898-10.901-21.1-12.101-28.599-2.301l-48,62.5C857.353,350.581,856.652,357.681,859.654,363.481z"/>
	<path fill="#1A1A1A" d="M1350.052,1365.08c-17.2-47.201-33.7-82.598-67.3-123.799c-33.202-40.701-83.302-87.1-158.601-153.498
		c-29.898-26.402-64.999-59.902-102.301-100.603l48.801-56.698c8.799-10.199,8.401-25.4-1-35.101l-23.798-24.702
		c-8.701-8.996-22.604-10.6-33.102-3.699c-10.7,7.003-25,5.202-33.602-4.299l-23.4-25.7c-8.898-9.7-23.698-11.3-34.502-3.599
		l-14.697,10.499c-22.801-32.5-45.4-67.498-67-104.999c-39.699-68.8-73.098-140.101-99.9-213.5l79.901-94.399
		c4.002-4.701,4.901-11.202,2.302-16.802l-7.003-15.299c-4.198-9.099-15.702-12.099-23.7-6.099c-8.698,6.399-21.097,2.4-24.4-7.901
		l-24.297-76.298c-3.004-9.401-13.702-13.801-22.401-9.201l-37.599,19.901c-11.4-58.802-19.001-118.802-22.801-179.801
		c16.2-5.8,95.999-31,137.598-44.199c15.401-4.902,26.304-18.602,27.5-34.702l-97.997,3.301l-69.702,8.599
		c-0.199-1.499-1.498-2.599-2.999-2.599c-1.702,0-2.997,1.3-2.997,3c3.999,240,65.598,465.1,183.296,668.799
		c95.601,165.6,208.201,282.003,285.802,350.399c75.1,66.201,125,112.4,157.9,152.803c33.099,40.398,49.297,75.398,66.298,121.998
		c35.302,97-47.3,415.102-48.101,418.299c-0.499,1.604,0.499,3.303,2.101,3.699c0.302,0.104,0.499,0.104,0.801,0.104
		c1.302,0,2.599-0.803,2.9-2.102c0.3-0.797,21.301-81.398,37.6-173.098C1361.651,1490.283,1365.152,1406.682,1350.052,1365.08z"/>
	<path fill="#FFFFFF" d="M693.151,185.882l8.502,55.5c1.898,12.599,14.999,20.199,26.9,15.599l20.5-7.899
		c10.899-4.201,23.098,1.899,26.297,13.1l15.8,55.299c3.702,13.001,19.102,18.602,30.301,11.001l15.604-10.501
		c6.598-4.498,9.897-12.499,8.396-20.4l-29.601-149.9c-2.402-12.099-15-19.1-26.6-14.799l-83.498,31.399
		C697.052,167.482,691.751,176.582,693.151,185.882z"/>
	<path fill="#1A1A1A" d="M1850.251,875.784c-144.2-30.2-273.699-74.803-386.501-132.901l35.499-57.402
		c0.803-1.4,0.4-3.198-0.997-4.099c-1.4-0.801-3.201-0.399-4.103,1l-35.7,57.699c-36.697-19.102-71.599-39.598-104.6-61.599
		c-15.2-10.101-30.1-20.601-44.499-31.3l34.899-40.6c1.103-1.201,0.901-3.101-0.298-4.201c-1.198-1.1-3.1-1.001-4.202,0.299
		l-35.199,40.9c-38.3-28.8-73.898-59.7-106.497-92.7l35.499-33.5c1.199-1.1,1.199-3,0.097-4.2c-1.099-1.199-2.997-1.199-4.196-0.099
		l-35.503,33.6c-40.098-40.899-75.701-84.9-106.7-131.601c-14.798-22.299-27.896-44.299-39.498-65.799l30.999-15.5
		c1.399-0.7,1.999-2.5,1.302-4c-0.7-1.4-2.501-2-4-1.299l-31.104,15.6c-77.797-146.4-86.798-266.8-87.598-281.9
		c-0.102-1.601-1.602-2.9-3.199-2.8c-1.501,0.101-2.704,1.4-2.8,2.9l-102.502-2.4l41.301,170.1c3.999,16.5,21.199,26,37.199,20.7
		l61.303-20.2c19.397,55.5,48.897,120.4,93.497,187.8c57.7,87.1,131.498,164.601,219.901,230.901c0.197,0.399,0.398,0.7,0.799,0.999
		c0.501,0.399,1,0.601,1.503,0.7c15,11.2,30.397,22,46.197,32.5c40.1,26.702,82.901,51.3,128.302,73.801l-21.303,78.099
		c-5.8,21.401,4.101,43.9,23.799,54l3.4,1.698c9.103,4.603,20.104-0.099,22.901-9.897l28.401-97.4
		c8.1,3.498,16.198,6.999,24.402,10.398l-49.802,169.099c-3.901,13.302,1.599,27.501,13.401,34.703l47.598,29.099
		c15.5,9.396,35.7,3.498,43.6-12.803l27.602-57.197c5.996-12.602,2.896-27.602-7.804-36.602l-20.701-17.599
		c-8.799-7.401-12.597-19.2-9.998-30.299l13.201-56.204c18.299,6.704,36.901,13.002,55.799,19.104l-5.5,25.796
		c-3.397,15.699,4.903,31.502,19.703,37.702l8.396,3.601c12.901,5.399,19.202,20.1,14.302,33.199l-18.601,49.697
		c-8.698,23.3-1.999,49.603,16.9,65.802l53.5,45.998c0,0,44.499-89.498,65.999-153.998l20.602-61.702c0.099,0,0.199,0,0.298,0.101
		c0.201,0.101,0.402,0.101,0.602,0.101c1.4,0,2.697-0.901,2.997-2.301C1852.951,877.682,1851.853,876.081,1850.251,875.784z"/>
	<path fill="#1A1A1A" d="M1871.35,807.382c-0.397-0.098-45.799-8.4-120.8-33.4c-1.199-0.301-2.498,0-3.299,1l-19.001,23.3
		l0.499-29.499c0-1.302-0.799-2.501-1.998-2.9c-53.802-19-108.2-41.501-161.899-67c-1.201-0.599-2.699-0.301-3.601,0.8l-25.3,30.397
		l6.701-39.498c0.298-1.298-0.402-2.6-1.604-3.2c-54.195-26.801-107.798-56.7-159.197-88.999
		c-21.601-13.5-42.601-28.2-62.602-43.701c-1.101-0.801-2.5-0.9-3.599-0.101l-36.899,25.702l21.8-37.202
		c0.699-1.199,0.4-2.9-0.7-3.798c-44.197-36.501-84.4-78.401-119.702-124.402c-0.7-0.999-1.997-1.398-3.196-1.1l-48.903,14.001
		l32.301-35.9c0.898-1.001,1.002-2.6,0.201-3.701c-43.599-61.898-78.599-130.399-104.3-203.399
		c-20.401-58.3-28.8-102.5-31.399-118.801c-0.201-1.7-1.803-2.799-3.399-2.498c-1.702,0.199-2.801,1.799-2.501,3.399
		c1.199,7.399,3.498,20.3,7.601,37.6l-23.7,5.801c-1.602,0.399-2.604,2-2.203,3.6c0.3,1.399,1.604,2.3,2.903,2.3
		c0.297,0,0.499,0,0.697-0.1l23.7-5.8c5.002,20.698,12.3,46.8,22.7,76.5c2.398,6.8,4.901,13.5,7.399,20.2l-43.799,18.1
		c-1.499,0.602-2.199,2.4-1.598,3.901c0.499,1.199,1.598,1.9,2.796,1.9c0.303,0,0.7-0.1,1.103-0.301l43.599-17.999
		c24.402,63.099,56.002,122.598,94.101,177.1l-37.7,41.9c-0.901,1-1,2.499-0.3,3.6c0.702,1.1,2.103,1.699,3.4,1.3l57.002-16.301
		c8.399,10.802,16.997,21.401,25.899,31.801l-57.601,43.5c-1.302,1-1.601,2.899-0.602,4.2c0.602,0.801,1.499,1.199,2.398,1.199
		c0.602,0,1.302-0.2,1.805-0.6l57.899-43.7c26.999,30.9,56.298,59.7,87.599,85.699l-27.498,46.899
		c-0.7,1.201-0.403,2.701,0.597,3.702c1.101,0.999,2.6,1.1,3.801,0.299l46.199-32.399c19.6,15.099,40.2,29.5,61.301,42.7
		c15.798,9.9,31.8,19.601,48.002,29.1l-20.901,30.3c-0.899,1.401-0.6,3.3,0.8,4.2c0.499,0.301,1.099,0.5,1.698,0.5
		c1.002,0,1.898-0.5,2.503-1.299l21.099-30.701c34.3,19.9,69.3,38.7,104.6,56.199l-8.197,48.301c-0.201,1.302,0.498,2.6,1.697,3.2
		c1.3,0.599,2.697,0.199,3.602-0.798l30.998-37.203c34.298,16.301,68.899,31.3,103.499,45.001l-16.599,47.3
		c-0.6,1.501,0.199,3.301,1.801,3.8c0.3,0.101,0.698,0.201,1,0.201c1.3,0,2.397-0.8,2.8-2.001l16.498-47.099
		c16.503,6.401,32.902,12.602,49.302,18.299l-0.6,36c0,1.302,0.801,2.501,2,2.901c1.198,0.499,2.599,0.099,3.399-0.899
		l23.099-28.399c74.304,24.698,119.302,32.897,119.702,32.998c0.099,0,0.3,0,0.498,0c1.4,0,2.7-1.002,2.998-2.5
		C1874.054,809.282,1872.949,807.68,1871.35,807.382z"/>
	<path fill="#1A1A1A" d="M744.15,696.884c-1.096,0-2.198-0.601-2.697-1.701c-43.502-90.1-69.003-163.801-82.702-209.7
		c-14.898-49.901-19.5-78.9-19.599-79.1c-0.302-1.601,0.901-3.201,2.499-3.401c1.599-0.3,3.203,0.9,3.399,2.5
		c0,0.3,4.699,29,19.502,78.5c13.697,45.7,38.999,119,82.3,208.701c0.7,1.5,0.101,3.3-1.4,3.997
		C744.953,696.782,744.551,696.884,744.15,696.884z"/>
	<path fill="#1A1A1A" d="M1167.152,1873.082c-0.4,0-0.7-0.104-1.101-0.201c-26.901-10.6-45.301-31.398-54.9-61.697
		c-7.5-23.902-9.499-53.803-5.8-88.803c6.198-59.299,26.702-113.801,26.898-114.398c0.604-1.5,2.302-2.303,3.903-1.701
		c1.499,0.602,2.297,2.299,1.698,3.9c-0.199,0.498-20.5,54.398-26.6,112.998c-3.601,34.201-1.697,63.203,5.601,86.301
		c8.9,28.5,26.201,47.9,51.299,57.803c1.497,0.596,2.302,2.396,1.698,3.898C1169.451,1872.283,1168.353,1873.082,1167.152,1873.082z
		"/>
	<path fill="#1A1A1A" d="M1437.151,1713.982c-0.7,0-1.4-0.201-1.898-0.699c-1.302-1.102-1.4-3-0.4-4.203
		c134.598-160.898,225.198-309.596,277.499-405.898c56.698-104.402,81.801-171.6,82.002-172.299c0.595-1.6,2.297-2.301,3.896-1.801
		c1.602,0.602,2.302,2.299,1.803,3.9c-0.201,0.699-25.503,68.199-82.302,172.898c-52.401,96.602-143.201,245.701-278.197,407.002
		C1438.854,1713.682,1438.053,1713.982,1437.151,1713.982z"/>
	<path fill="#F03B38" d="M129.054,1813.182c0,0,36.998,114.803,40.997,110.699c4.001-4.201-1.499-48.701-1.499-48.701
		s37.002,63,41.5,58.002c4.503-5-14.999-56.502-10.501-59c4.502-2.5,38.999,63.801,46.503,57.699
		c7.498-6.201-24.499-67.201-24.499-67.201s40.498,43.5,44.998,37c4.501-6.498-24.702-53.297-24.702-53.297
		s29.702,16.799,37.702,1.297l-60.002-40.498l-17.497-21.002C202.054,1788.18,170.554,1820.684,129.054,1813.182z"/>
	<path fill="#F03B38" d="M381.45,700.484c0,0,21.701-34.302,25.801-31.001c4.203,3.299-3.8,42.799-3.8,42.799
		S398.853,706.882,381.45,700.484z"/>
	<path fill="#F5E510" d="M521.053,990.182c0,0-22.001,78.001-85.999,86.5c-64.002,8.498-90.502-16-103.003-45.002l31.001-15.498
		l-17.5-115l-33.001-30.502c0,0-72.999-23.497-70.997-27.997c1.997-4.502,5.5-65.001,5.5-65.001l17.999-43
		c0,0,57.499-38.001,95.999-36c38.501,2.002,60.501,27.498,69.499,47c9.001,19.5,18.502,42.998,15.002,78.501
		c-3.501,35.499-15.002,41.5-15.002,41.5l36.503,123.5C467.054,989.182,509.552,987.681,521.053,990.182z"/>
	<path fill="#F03B38" d="M614.949,782.282c0,0-39.498-19.7-57.799-28.4c-18.298-8.7-45.7-18.002-45.998-14.001
		c-0.3,4,37.3,26.002,36.7,28.701c-0.702,2.702-0.201,5.1-4.401,3.999c-4.198-1.001-40.898-12.399-53.2-13.697
		c-12.302-1.302-15.3,3.3-11.3,7.997c3.999,4.699,14.701,10.001,14.701,10.001s-31.201-7.201-31.6-0.898
		c-0.4,6.195,15.599,16.599,23.899,20.197c8.3,3.601,31,15,31,15s-25.701-3.7-26.701-4c-1-0.302-25.801-3.299-25.199,1.499
		c0.602,4.804,27.901,15.2,30.9,15.802c2.999,0.7,28.701,8.3,28.701,8.3s-26.304,4.299-30.003,6.699
		c-3.699,2.299-11.598,10.199-7.998,18.699l75.797-8.799l20.603,3L614.949,782.282z"/>
	<path fill="#1A1A1A" d="M1102.451,1363.08c-9.5-27.799-84.499-22.199-145.699-12.598c-85.101,13.297-194.401,42.098-307.702,81.1
		c-113.3,39-217.099,83.5-292.399,125.4c-98.1,54.6-112.399,84.396-107.096,99.697c5.197,15.303,30.195,20.502,61.798,20.502
		c25.898,0,56.302-3.5,83.898-7.902c85.101-13.297,194.401-42.098,307.701-81.1c113.299-39,217.098-83.498,292.4-125.398
		C1093.45,1408.18,1107.752,1378.381,1102.451,1363.08z"/>
	<path fill="#FFFFFF" d="M972.552,1013.08c-26.699-42-39.999-71.298-150.698-129.296
		c-110.701-58.002-206.904-101.502-206.904-101.502l-31.996,70.202c0,0,60.597,24.798,125.902,60.8
		c65.296,35.996,102.693,82.7,91.296,112.699c-11.301,30-83.298,37.297-131.298,12.701
		c-48.104-24.801-114.803-46.104-147.801-48.501c0,0-12,68.3-81.3,84.298c-69.303,16-91.701-16.301-107.702-42.801
		c0,0-84,54.199-144.697,155.5c-60.702,101.303-87.303,203.303-90,334.701c-2.702,131.301,28.701,274.002,31.7,291.301
		c0,0,38.3,3.998,72.3-26.701c0,0-18.001-117.998,10.7-189.299c28.697-71.301,51.297-95.301,83.3-120l9.3-7.697
		c0,0,27.997,130.797,40.498,200.098c14.798-1.303,31.303-3.299,49.103-6.002c84.8-13.299,193.696-42,306.699-80.898
		c18.797-6.4,37.498-13.102,55.897-20c5.102-19.002,5.303-120.4,1.101-169.6l-6.5-47.9c0,0,54.502-6.098,117.801-38.098
		c63.301-32.002,102.7-80.004,118.002-129.301C1002.553,1128.48,999.249,1055.082,972.552,1013.08z"/>
	<path fill="#FFFFFF" d="M368.241,765.895c8.887-16.732,10.151-33.442,2.835-37.327c-7.315-3.885-20.447,6.528-29.329,23.262
		c-8.883,16.729-10.151,33.441-2.836,37.324C346.229,793.038,359.363,782.625,368.241,765.895z"/>
	<path fill="#1A1A1A" d="M372.551,725.881c-9.099-4.799-23.398,5.701-33.398,24.5c-4.402,8.502-7.198,17.202-7.802,24.7
		c-0.7,8.301,1.501,14.199,6.2,16.7c1.501,0.801,3.098,1.199,4.8,1.199c8.8,0,20.303-9.898,28.604-25.698
		C380.952,748.481,381.652,730.682,372.551,725.881z M340.452,786.583c-2.398-1.302-3.501-5.401-3.103-11.003
		c0.503-6.599,3.103-14.597,7.202-22.299c0.799-1.5,1.602-2.9,2.402-4.199c-0.604,6.9,0.896,12.198,4.699,14.099
		c4.599,2.401,11.398-0.698,18.097-7.499c-1.098,2.9-2.397,5.899-3.999,8.899C357.354,780.383,345.453,789.281,340.452,786.583z"/>
	<path fill="#1A1A1A" d="M538.553,828.681c-0.3,0-0.7-0.098-1-0.197c-1.602-0.602-2.398-2.304-1.803-3.803l18.502-52.001
		c0.602-1.599,2.299-2.397,3.802-1.797c1.6,0.598,2.398,2.299,1.797,3.799l-18.498,52.001
		C540.95,827.98,539.854,828.681,538.553,828.681z"/>
	<path fill="#1A1A1A" d="M426.263,795.544c0.903-16.818-5.285-30.829-13.835-31.289c-8.548-0.461-16.212,12.799-17.12,29.618
		c-0.907,16.821,5.286,30.83,13.831,31.289C417.688,825.625,425.354,812.364,426.263,795.544z"/>
	<path fill="#1A1A1A" d="M409.752,828.182c-0.199,0-0.4,0-0.6,0c-5.301-0.3-10-4.302-13-11.3c-2.8-6.299-4.1-14.6-3.601-23.202
		c1.002-18.8,10.002-33,20.302-32.499c5.297,0.3,9.998,4.3,12.996,11.3c2.802,6.299,4.104,14.601,3.601,23.2
		c-0.499,8.599-2.599,16.599-6.097,22.6C419.649,824.681,414.852,828.182,409.752,828.182z M412.154,767.283
		c-5.903,0-12.801,10.798-13.705,26.798c-0.397,7.699,0.703,14.901,3.103,20.401c2.101,4.798,4.999,7.601,7.898,7.699
		c0.103,0,0.201,0,0.302,0c2.8,0,5.897-2.5,8.398-6.797c3-5.202,4.903-12.302,5.301-20c0.4-7.701-0.7-14.901-3.102-20.401
		c-2.097-4.802-4.997-7.601-7.898-7.699C412.351,767.283,412.25,767.283,412.154,767.283z"/>
	<path fill="#F03B38" d="M484.051,1610.182c-0.7,0-1.499-0.299-2.101-0.799c-1.199-1.1-1.199-3.004-0.099-4.203
		c90.098-93.797,136.5-163.697,159.599-205.695c29.102-53.102,30.899-79.701,27.202-84.303c-0.801-1.1-1.898-1.5-3.301-1.598h-0.099
		c-14.803,0-51.399,42.496-78.104,73.596c-32.296,37.602-43.301,49.4-49.597,45.4c-4.2-2.697-5.802-9.199,17.699-62.498
		c39.1-88.4,49.999-154,52.2-193.502c2.402-42.498-4.302-64.199-4.399-64.4c-0.499-1.598,0.4-3.301,1.898-3.799
		c1.602-0.498,3.302,0.4,3.8,1.898c0.303,0.902,7.102,23.002,4.6,66.602c-2.298,39.902-13.298,106.301-52.8,195.5
		c-17.599,39.801-20.001,51.303-19.8,54.602c6.2-2.701,25.697-25.4,41.601-43.799c30.5-35.502,65.102-75.703,82.7-75.703
		c0.099,0,0.099,0,0.201,0c3.198,0.102,5.898,1.402,7.897,3.801c8.2,10.299-2.5,46.801-26.699,91
		c-23.199,42.4-69.899,112.701-160.499,207C485.654,1609.883,484.85,1610.182,484.051,1610.182z"/>
	<path fill="#F03B38" d="M259.154,1410.883c-2.201,0-4.302-0.602-6.301-2.102c-3.103-2.1-5.601-7.102,3.997-39.301
		c5.202-17.5,13.501-41.197,24.602-70.398c18.802-49.701,39.601-98.799,39.8-99.301c0.6-1.5,2.4-2.201,3.898-1.6
		c1.501,0.598,2.201,2.398,1.602,3.898c-0.199,0.502-20.199,47.801-38.702,96.4c-10.899,28.5-19.097,51.902-24.498,69.402
		c-9.001,29.299-7.699,34.998-7.2,35.996c8.301,5.303,24.602-17.795,39.002-38.199c17.698-24.998,35.997-50.898,52.2-47.498
		c1.599,0.301,2.699,1.898,2.299,3.5c-0.3,1.6-1.898,2.701-3.503,2.301c-12.397-2.6-30.298,22.801-46.096,45.1
		C284.751,1391.281,270.95,1410.883,259.154,1410.883z"/>
	<path fill="#F03B38" d="M128.951,1645.48c-4.8,0-7.098-6.498-8.8-12.9c-4.498-17.197-1.8-54.301,7.999-110.197
		c7.202-41.402,15.903-78.4,16.001-78.699c0.4-1.604,2.002-2.602,3.602-2.201c1.597,0.4,2.599,1.998,2.201,3.602
		c-0.303,1.498-34.202,146.697-24.003,186.096c1.402,5.301,2.501,7.303,3.103,8.102c1.199-1.299,4.498-6.598,8.897-28.4
		c2.799-13.799,4.604-27.102,4.604-27.299c0.197-1.598,1.697-2.803,3.397-2.6c1.602,0.197,2.798,1.699,2.6,3.398
		c0,0.1-1.998,14.801-4.999,29.299c-5.803,27.602-10.202,31.6-14.199,31.902C129.253,1645.48,129.152,1645.48,128.951,1645.48z"/>
	<path fill="#1A1A1A" d="M986.151,1034.082c-16.798-44.2-48.3-83.599-88.902-111.201c-87.498-59.4-266.1-136.899-280.298-143
		c-0.197-0.1-0.398-0.301-0.6-0.4c-0.297-0.198-23.702-11.897-48.101-22.999c-50.399-23-55.197-21.101-57.501-20.199
		c-1.101,0.499-1.997,1.298-2.397,2.398c-2.002,5.199,5.699,10.2,21.801,20c5.399,3.299,10.899,6.699,14.697,9.5l0.101,0.1
		c0.202,0.102,0.501,0.399,0.202,0.901c-0.303,0.602-0.7,0.4-0.901,0.4c-7.898-2.501-23.199-7.1-37.197-10.402
		c-24.002-5.698-30.003-4.5-31.901-0.697c-1.002,2.097-1.101,4.297-0.101,6.496c0.997,2.2,3.198,4.503,6.099,6.703
		c-8.499-1.602-15.601-2.1-19.099-0.301c-2.002,1.1-2.801,2.6-3.103,3.7c-2.201,8.099,12.702,17.002,45.101,32.301
		c-26.198-6.2-39.996-7.501-42.101,0.499c-0.298,0.799-0.298,2.101,0.602,3.602c3.9,6.298,29.102,15.397,51.001,21.197
		c-7.701,1.302-16.304,3.203-22.398,6.003c-4.902,2.299-7.902,5.5-9.102,9.499c-1.701,6.102,1.799,11.499,1.899,11.7
		c0.499,0.897,1.501,1.4,2.501,1.4c0.098,0,0.199,0,0.297-0.201l74.702-8.701c0.101,0,0.199,0.103,0.297,0.103
		c12.405,2.096,20.001,2.896,20.701,2.999c5.902,2.398,47.103,18.8,91.602,42.2c44.001,23.099,100.2,57.797,118.4,91.998
		c9.799,18.5,9.499,33.899-1,44.7c-10.901,11.201-32.4,16.801-59.101,15.4c-28.9-1.5-62.102-11-93.501-26.699
		c-51.5-25.8-95.5-34.501-123.398-37.199c-24.003-2.402-40.201-0.904-46.303-0.101l-35.595-120.501
		c8.497-12.7,13.597-25.198,15.196-37.301c3.103-23.398-0.398-50.7-9.298-72.999c-5.701-13.998-15.503-31.201-32.001-43.601
		c0.7-3.399,2.199-10.398,3.3-17.899c2.9-19.301,0.798-23.999-1.499-26.1c-1.101-1.002-2.6-1.501-4.198-1.201
		c-2.702,0.399-7.104,2.8-16.805,17.4c-4.098,6.097-7.497,12-8.897,14.299c-20.603-4.898-46.3-1.1-74.699,11.3
		c-23.6,10.2-40.5,22.501-41.202,23c-0.101,0.099-0.199,0.201-0.398,0.3c-2.801,0.202-5.701,0.701-8.6,1.401
		c-21.5,5-45.403,29.001-57.703,42.9c-18.399,20.598-33.698,44-38.999,59.499c-4.997,14.398-5.1,26.002-0.398,34.501
		c3.898,6.999,10.799,11.6,20.601,13.899c6.9,1.599,21.4,4.898,24.997,11.4c1.002,1.798,1.103,3.8,0.302,6.2
		c-0.801,2.302-2.2,5.301-3.701,8.502c-4.798,10.298-10.698,23.197-5.898,33.298c2.599,5.599,8.301,9.4,16.701,11.501
		c2.499,0.598,5.001,0.899,7.399,0.899c16.198,0,30.698-12.499,41.598-21.998c6.002-5.304,13.604-11.804,15.398-9.802
		c2.802,3.098,3.303,7.498,3.703,11.799c0.799,7.502,1.797,16.8,17.299,15.699c17.5-1.297,42.001-21.396,50.901-29.2l12.999,91.102
		c-7.102,2.5-28.2,11.1-57.801,34.6c-59.7,47.299-106.599,117.402-135.398,167.998c-45.097,80-69.6,178.701-72.899,293.303
		c-1.999,72.1,4.196,150.199,18.5,233.002c0,0.098,0,0.197,0,0.297c0,0.502,0.099,0.902,0.3,1.299
		c3.898,22.602,8.499,45.502,13.599,68.703c0,0.299,0,0.598,0.104,0.998c0.099,0.299,8.598,27.602,17.795,54.703
		c19.202,56.299,22.901,57.297,25.304,57.998c1.4,0.4,2.901,0,3.999-1c1.501-1.4,4.199-3.9,0.499-30.502c-0.3-2.6-0.7-5.1-1.098-7.6
		c2.697,4.701,5.897,10.002,9.197,15.4c19.401,31.6,24.201,32.699,26.301,33.201c0.298,0.1,0.7,0.1,1.099,0.1
		c1.002,0,1.801-0.301,2.801-0.9c4.902-3.4,2.1-14-5.898-39.199c-2-6.199-4.498-14-5.701-19.102
		c3.299,4.5,8.104,12.102,12.098,18.604c16.602,26.697,27.203,42.896,35.201,38.598c4.903-2.602,4.201-10.1-2.498-25.801
		c-4.701-11.201-11.499-24.299-16.999-34.801c17.9,20.199,29.299,31.201,36.799,31.201c1.103,0,2.2-0.301,3.198-0.799
		c0.803-0.4,1.903-1.303,2.302-3.102c0.898-3.799-1.099-12.799-21.5-46.502c3.602,1.301,8.198,2.701,13.899,3.902
		c2.201,0.5,4.1,0.701,5.9,0.701c9.099,0,12.896-5.5,13.702-9.102c0.298-1.199-0.201-2.402-1.203-3.102l-65.502-44.5
		c-0.097-0.098-0.197-0.098-0.298-0.098c-5.299-7.9-9.202-13.6-10.4-15.4c-1.199-7.699-14.899-102.502,3.001-168.9
		c15.302-56.598,46.303-103.799,94.6-143.697c4.399,21.998,24.602,121.699,40.399,197.297c0.302,1.4,1.501,2.4,2.901,2.4
		c0.201,0,0.397,0,0.6-0.102c1.601-0.396,2.601-1.998,2.301-3.598c-8.099-38.6-17.301-83.4-25.002-121.002
		c9.303-2.6,37.7-13.697,46.102-53.299c3.9-18.6-4-40.998,27.999-61.998c27.001-17.701,14.902-52.402,10.402-62.902
		c20.698-31.4,29.896-60.199,36.698-86.5c0.4-1.602-0.598-3.299-2.199-3.701c-1.697-0.396-3.301,0.602-3.701,2.203
		c-12.698,48.898-33.802,106.699-124.9,174.299c-58.199,43.299-94.901,95.301-112.102,159c-9.298,34.4-10.199,76.199-8.698,110.002
		c-26.7,12.098-65.2,13.396-75.701,13.598c-14.099-81.799-20.198-158.898-18.098-230.1c3.201-110.002,26.098-205.1,67.799-282.799
		c25.501,6.4,60.199-14.803,82.201-51.902c17.697-29.9,22.398-62,14.201-83.5c12.997-13.697,26.798-26.699,41.397-38.299
		c9.302-7.398,17.799-13.301,25.198-17.9c2.201,5.002,7.802,15.699,18.703,25.6c11.3,10.301,30.098,21.303,59.201,21.303
		c5.798,0,11.996-0.4,18.8-1.4c39.798-5.803,63.9-29.102,77.1-47.602c11.798-16.701,17.197-32.199,18.799-37.299
		c2.302,0.499,4.599,0.997,7.001,1.501c33.499,7.699,82.698,26.798,126.298,73.5c21.899,23.5,62.402,85.498,87.399,238.098
		c1.899,11.502,3.602,23.102,5.102,34.699c-0.297,0.502-0.4,1.104-0.297,1.701c0.099,0.602,0.396,1.201,0.798,1.602
		c10.797,83.1,12.398,166.6,3.799,216.4c-0.3,1.697,0.798,3.199,2.401,3.498c0.199,0,0.298,0,0.499,0c1.499,0,2.697-0.998,3-2.502
		c8.602-50.098,7.102-133.596-3.602-216.898c11.402-1.799,49.501-8.799,91.401-26.299c29.398-12.299,55.099-27.299,76.202-44.699
		c26.496-21.803,45.998-47.301,57.799-75.801C1004.354,1144.48,1006.151,1086.68,986.151,1034.082z M275.751,1850.58
		c-1.3,1.703-4.4,3.602-11.499,2.104c-12.104-2.602-19.397-6.303-20.601-6.9c-1.599-2.5-3.2-5.203-5.001-8
		c-4.898-7.699-9.797-15.201-14.299-22.102L275.751,1850.58z M201.555,1792.48c4.798,7.002,18.598,27.402,31.998,48.602
		c27.697,43.701,30.898,55.199,31.1,58c-1.302-0.1-4.999-1.4-13.199-9.102c-7.202-6.799-15.004-15.6-21.204-22.697
		c-2.898-3.201-5.296-6.002-7.197-8.002c-2.4-2.5-4.699-4.9-7.198-3.201c-2.601,1.703-1.103,4.904,0.797,8.801
		c1.501,2.998,3.601,7.102,6.104,11.799c4.999,9.701,11.398,21.805,15.999,32.4c6.399,14.801,6.198,19.002,5.9,20
		c-0.903-0.199-3.802-1.697-10.702-11.098c-5.2-7.201-11.197-16.801-16.5-25.303c-12.899-20.697-16.399-25.5-20.299-25.098
		c-1.201,0.102-2.198,0.699-2.8,1.697c-2.002,3.201-0.101,10.102,5.898,29.004c3.001,9.398,8.204,25.998,8.099,31.498
		c-6.495-5.199-24.597-33.998-38.898-59.998c-0.801-1.303-2.3-1.904-3.702-1.4c-1.396,0.498-2.198,1.898-1.898,3.398
		c4.001,20.4,6.301,39.398,5.802,46.9c-5.5-9.801-18.797-45.6-36.302-101.801c1.503,0.102,3.302,0.201,5.301,0.201
		C151.249,1817.082,174.253,1813.48,201.555,1792.48z M143.351,1744.779c20.2-2.197,37.201-6.096,50.503-11.699
		c1.398,27,4.297,47.801,5.098,53.703c-33.298,26.199-60.3,24.699-67.298,23.697c-4.798-21.699-9.1-43.199-12.801-64.301
		C123.652,1746.082,132.552,1745.781,143.351,1744.779z M405.554,672.182c1.697,3.6,0.198,18.799-3.503,35.5
		c-4.896-3.098-10.298-5.8-16.299-7.901c-0.101,0-0.298-0.098-0.4-0.098C393.353,685.683,402.151,673.782,405.554,672.182z
		 M499.254,1030.08c-18.203,25.6-42.802,40.801-73.103,45.199c-29.999,4.4-54.498-1.697-72.7-18.199
		c-10.799-9.799-16.102-20.498-17.8-24.598c15.302-9.102,25.199-12.498,27.702-13.301c0.3-0.1,0.398-0.1,0.499-0.199
		c0.397-0.102,0.7-0.301,0.999-0.502l0.099-0.098l0.104-0.102c0.798-0.699,1.198-1.9,0.898-2.998c0-0.102-0.101-0.102-0.101-0.203
		l-14.198-99.499c1.199-5.8,2.796-19.699-2.201-41.5c-3.802-16.699-10.501-24.499-15.401-28.1c-4.4-3.201-10.301-3.5-15.196-0.8
		c-20.5,11.4-28.302,6.603-30.2,4.9c-4.302-3.999-6.2-8.598-5.701-13.801c0.599-6.401,5.001-11.7,8.698-13.898
		c3.999-2.3,9.4-1.302,13.201,0c2.699,0.901,5.601,0.7,8.199-0.602c2.501-1.298,4.402-3.499,5.299-6.2
		c3.702-11.3,2.6-29.999-2.5-43.399c-2.496-6.699-8.5-19.501-19.5-28.8c-6.898-5.899-14.597-9.4-22.998-10.6
		c17.999-11.501,70.201-41.302,110.299-27.3c28.2,9.899,42.802,33.599,50.101,51.799c8.497,21.4,11.801,47.503,8.899,70
		c-4.999,38.102-48,71.601-52.9,75.202c-0.997,0.499-1.6,1.4-1.697,2.501c0,0.098,0,0.196,0,0.3c0,0,0,0,0,0.098
		c0,0.899,0.498,1.8,1.297,2.299l62.699,41.303l12.103,40.997c0.4,1.4,1.6,2.201,2.901,2.201c0.3,0,0.598,0,0.897-0.102
		c0.101,0,0.101,0,0.201-0.098c3.898-0.3,22.7-1.499,48.9,3.098C515.351,1000.482,510.053,1014.879,499.254,1030.08z
		 M586.952,850.782l29.5-64.701c5.898,2.599,21.2,9.302,42.202,18.703l-30.902,63.498
		C608.253,859.482,593.152,853.282,586.952,850.782z M487.75,849.782c0.7-2.201,2.702-4.1,5.902-5.599
		c12.298-5.701,37.3-7.6,37.6-7.6c1.697-0.101,2.9-1.501,2.8-3.201c-0.101-1.702-1.5-2.901-3.198-2.803c-0.103,0-0.201,0-0.302,0
		c-0.3-0.298-0.7-0.398-1.199-0.499c-13.103-2.697-27.802-6.9-40.399-11.497c-12.903-4.702-18.701-8.104-20.504-9.703
		c1.204-0.501,4.702-1.3,14.002,0c9.298,1.3,20.298,4.1,29.2,6.301c12.801,3.201,14.501,3.5,16.198,2.4
		c0.702-0.501,1.302-1.201,1.402-2.1c0.398-2.7-2.1-3.999-5.9-5.9c-2.798-1.4-6.699-3.201-11.201-5.301
		c-9.698-4.499-21.6-10.102-31.399-15.602c-14.299-8.098-15.798-11.497-15.898-12.098c0.801-0.499,6.397-2.599,35.197,5.903
		c2.402,0.696,4.8,1.498,7.102,2.196c11.801,4.699,22.901,8.001,25.3,8.701c1.601,0.501,3.202-0.4,3.701-1.899
		c0.501-1.6-0.302-3.201-1.803-3.8c-3.999-1.4-14.198-5.198-25.898-8.901c-13.499-5.4-25.6-11.498-27.7-16.298
		c-0.198-0.402-0.198-0.802-0.198-1.001c3.898-1.4,24.697,2.2,62.001,13.801c3.196,0.998,6.498-0.402,7.999-3.299
		c1.5-2.9,0.801-6.401-1.801-8.403l-0.201-0.198c-3.997-3-9.698-6.401-15.198-9.801c-5.4-3.299-13.503-8.3-17.302-11.501
		c12.702,2.604,55.504,21.702,95.002,41.401l-29.998,65.699c-3.103-0.4-9.403-1.199-17.803-2.599
		c-0.4-0.199-0.901-0.199-1.399-0.199l-73.702,8.602C487.651,853.683,487.153,851.681,487.75,849.782z M975.251,1198.682
		c-8.099,19.398-19.801,37.402-34.999,53.801c-10.1-14.303-44.198,9.197-50.801-3.9c-6.601-13.402-20-24.002-61.299-14.699
		c-41.401,9.4-19.403-18.002-46.7-41.303c-22.501-19.199-51.503-12.197-60.899-9.1c-21.499-66.699-44.901-100.299-59.803-116.301
		c-34.697-37.197-72.9-57.297-104.199-68.097c23.4,5.597,50.402,14.701,79.701,29.398c36.498,18.203,73.999,27.602,104.598,27.602
		c2.401,0,4.701-0.1,6.899-0.201l48.203,21.4c5.699,2.502,12.199,0.102,14.6-5.701c2.302-5.398,8.199-8.301,13.699-6.598
		l31.202,9.598c10.099,3.102,22.797-2.799,29.898-14.299c9.102-14.4,6.1-32.002-7.5-36.5l-74.8-24.498
		c-1.302-4.002-2.999-8.202-5.303-12.4c-15.297-28.503-55.897-60.302-120.896-94.501c-15.299-8.1-30.299-15.302-43.601-21.502
		l30.798-63.498c62.601,28.5,168.601,79.001,229.703,120.501c39.599,26.9,70.397,65.299,86.696,108.298
		C999.951,1087.279,998.153,1143.484,975.251,1198.682z"/>
	<path fill="#F03B38" d="M924.751,1186.883c-0.597,0-1.199-0.201-1.697-0.502c-1.402-0.898-1.7-2.797-0.804-4.197
		c40.803-59.602,23.7-135.5,23.603-136.303c-0.4-1.6,0.599-3.199,2.198-3.6c1.6-0.398,3.201,0.6,3.602,2.201
		c0.201,0.799,4.596,20,3.798,47.098c-0.7,25.002-6.2,61.703-28.299,93.902C926.65,1186.381,925.751,1186.883,924.751,1186.883z"/>
	<path fill="#F2353C" d="M237.054,765.68c-0.801,0-1.602-0.3-2.201-1.001c-1.101-1.198-1.002-3.098,0.201-4.198
		c13.199-12.098,26.798-14.1,35.896-13.799c9.902,0.399,16.702,3.699,17.004,3.801c1.498,0.697,2.101,2.501,1.4,4
		s-2.503,2.097-4.002,1.397c-1-0.499-24-11.3-46.199,9.001C238.55,765.482,237.85,765.68,237.054,765.68z"/>
</g>
</svg>
